<svg width="301" height="41" viewBox="0 0 301 41" fill="none" xmlns="http://www.w3.org/2000/svg">
<path d="M16.5205 16.1803V18.7966H14.6053V21.9943H16.5205V31.5H20.4573V21.9943H23.0983C23.0983 21.9943 23.3472 20.461 23.4669 18.7833H20.4725V16.5983C20.4725 16.2696 20.9019 15.8307 21.3275 15.8307H23.4707V12.5H20.5542C16.4236 12.5 16.5205 15.7015 16.5205 16.1803Z" fill="white"/>
<path d="M7.6 6.8C6.59218 6.8 5.62563 7.20036 4.91299 7.91299C4.20036 8.62563 3.8 9.59218 3.8 10.6V33.4C3.8 34.4078 4.20036 35.3744 4.91299 36.087C5.62563 36.7996 6.59218 37.2 7.6 37.2H30.4C31.4078 37.2 32.3744 36.7996 33.087 36.087C33.7996 35.3744 34.2 34.4078 34.2 33.4V10.6C34.2 9.59218 33.7996 8.62563 33.087 7.91299C32.3744 7.20036 31.4078 6.8 30.4 6.8H7.6ZM7.6 3H30.4C32.4156 3 34.3487 3.80071 35.774 5.22599C37.1993 6.65126 38 8.58435 38 10.6V33.4C38 35.4156 37.1993 37.3487 35.774 38.774C34.3487 40.1993 32.4156 41 30.4 41H7.6C5.58435 41 3.65126 40.1993 2.22599 38.774C0.800712 37.3487 0 35.4156 0 33.4V10.6C0 8.58435 0.800712 6.65126 2.22599 5.22599C3.65126 3.80071 5.58435 3 7.6 3V3Z" fill="white"/>
<path d="M84 3C78.8349 3 78.1912 3.02494 76.1698 3.11045C74.1401 3.21021 72.7672 3.52494 71.5558 3.99525C70.288 4.4739 69.1397 5.2233 68.1912 6.19121C67.2206 7.13753 66.4708 8.28638 65.9952 9.55582C65.5249 10.7672 65.2102 12.1401 65.1105 14.1698C65.019 16.1924 65 16.8349 65 22C65 27.1651 65.0249 27.8088 65.1105 29.8302C65.2102 31.8539 65.5249 33.2328 65.9952 34.4442C66.4739 35.712 67.2233 36.8603 68.1912 37.8088C69.1375 38.7794 70.2864 39.5292 71.5558 40.0048C72.7672 40.4691 74.1461 40.7898 76.1698 40.8895C78.1924 40.981 78.8349 41 84 41C89.1651 41 89.8088 40.9751 91.8302 40.8895C93.8539 40.7898 95.2328 40.4679 96.4442 40.0048C97.712 39.5261 98.8603 38.7767 99.8088 37.8088C100.781 36.8635 101.531 35.7143 102.005 34.4442C102.469 33.2328 102.79 31.8539 102.89 29.8302C102.981 27.8076 103 27.1651 103 22C103 16.8349 102.975 16.1912 102.89 14.1698C102.79 12.1461 102.468 10.7601 102.005 9.55582C101.526 8.28796 100.777 7.13974 99.8088 6.19121C98.8635 5.21935 97.7144 4.46933 96.4442 3.99525C95.2328 3.52494 93.8539 3.21021 91.8302 3.11045C89.8076 3.019 89.1651 3 84 3ZM84 6.42043C89.0724 6.42043 89.6781 6.44537 91.6829 6.53088C93.5321 6.61758 94.5392 6.92637 95.2078 7.18765C96.0345 7.49278 96.7826 7.97844 97.3979 8.60926C98.0276 9.22188 98.5115 9.96835 98.8135 10.7933C99.0748 11.462 99.3836 12.4691 99.4703 14.3183C99.5558 16.323 99.5808 16.9299 99.5808 22.0012C99.5808 27.0724 99.5558 27.6793 99.4632 29.6841C99.3634 31.5333 99.0546 32.5404 98.7945 33.209C98.4347 34.101 98.0333 34.7245 97.3705 35.399C96.7533 36.0259 96.0056 36.5092 95.1805 36.8147C94.5202 37.076 93.4988 37.3848 91.6425 37.4715C89.6271 37.557 89.0333 37.5819 83.9477 37.5819C78.8622 37.5819 78.2696 37.557 76.2518 37.4644C74.4026 37.3646 73.3824 37.0558 72.7138 36.7957C71.8112 36.4359 71.1924 36.0344 70.5297 35.3717C69.861 34.7031 69.4359 34.0665 69.1081 33.1817C68.842 32.5214 68.538 31.5 68.4394 29.6437C68.3717 27.652 68.3397 27.0344 68.3397 21.9727C68.3397 16.9133 68.3717 16.2945 68.4394 14.2779C68.538 12.4216 68.842 11.4026 69.1081 10.7399C69.4359 9.8361 69.8622 9.21853 70.5297 8.54988C71.1912 7.88836 71.8112 7.46081 72.7138 7.12589C73.3824 6.8658 74.3777 6.55701 76.234 6.46437C78.2494 6.39192 78.8432 6.3658 83.9216 6.3658L84 6.42043ZM84 12.2482C82.7189 12.2478 81.4503 12.4997 80.2667 12.9898C79.0831 13.4798 78.0076 14.1983 77.1017 15.1041C76.1959 16.01 75.4774 17.0854 74.9874 18.2691C74.4974 19.4527 74.2454 20.7213 74.2458 22.0024C74.2454 23.2834 74.4974 24.552 74.9874 25.7357C75.4774 26.9193 76.1959 27.9948 77.1017 28.9006C78.0076 29.8065 79.0831 30.525 80.2667 31.015C81.4503 31.505 82.7189 31.757 84 31.7565C85.2811 31.757 86.5497 31.505 87.7333 31.015C88.9169 30.525 89.9924 29.8065 90.8983 28.9006C91.8041 27.9948 92.5226 26.9193 93.0126 25.7357C93.5026 24.552 93.7546 23.2834 93.7542 22.0024C93.7546 20.7213 93.5026 19.4527 93.0126 18.2691C92.5226 17.0854 91.8041 16.01 90.8983 15.1041C89.9924 14.1983 88.9169 13.4798 87.7333 12.9898C86.5497 12.4997 85.2811 12.2478 84 12.2482V12.2482ZM84 28.3361C80.4988 28.3361 77.6663 25.5036 77.6663 22.0024C77.6663 18.5012 80.4988 15.6686 84 15.6686C87.5012 15.6686 90.3337 18.5012 90.3337 22.0024C90.3337 25.5036 87.5012 28.3361 84 28.3361ZM96.4276 11.8587C96.4269 12.464 96.186 13.0443 95.7578 13.4721C95.3296 13.8998 94.749 14.1401 94.1437 14.1401C93.8444 14.1401 93.548 14.0812 93.2715 13.9667C92.995 13.8521 92.7438 13.6842 92.5321 13.4726C92.3205 13.261 92.1526 13.0097 92.0381 12.7332C91.9236 12.4567 91.8646 12.1603 91.8646 11.861C91.8646 11.5617 91.9236 11.2654 92.0381 10.9889C92.1526 10.7124 92.3205 10.4611 92.5321 10.2495C92.7438 10.0378 92.995 9.86997 93.2715 9.75543C93.548 9.6409 93.8444 9.58195 94.1437 9.58195C95.3991 9.58195 96.4276 10.6033 96.4276 11.8587V11.8587Z" fill="white"/>
<path d="M143.667 32.4583H138.542V15.375H143.667V32.4583ZM162.458 32.4583H157.333V23.3324C157.333 20.9544 156.486 19.7705 154.807 19.7705C153.476 19.7705 152.632 20.4334 152.208 21.7608V32.4583H147.083C147.083 32.4583 147.152 17.0833 147.083 15.375H151.129L151.441 18.7917H151.547C152.598 17.0833 154.277 15.9251 156.58 15.9251C158.331 15.9251 159.747 16.412 160.829 17.6351C161.917 18.86 162.458 20.5034 162.458 22.8114V32.4583Z" fill="white"/>
<path d="M141.104 13.6665C142.567 13.6665 143.752 12.5192 143.752 11.104C143.752 9.68877 142.567 8.5415 141.104 8.5415C139.642 8.5415 138.456 9.68877 138.456 11.104C138.456 12.5192 139.642 13.6665 141.104 13.6665Z" fill="white"/>
<rect x="133.5" y="4.5" width="35" height="35" rx="3.5" stroke="white" stroke-width="3"/>
<path opacity="0.2" d="M276.321 23.0836L293 11.0911C292.882 11.0355 292.753 11.0047 292.623 11.0005C292.492 10.9963 292.362 11.0188 292.24 11.0667L269.617 19.9116C268.71 20.2654 268.833 21.583 269.789 21.7782L276.321 23.0836ZM281.823 27.9025L278 31.7088C277.863 31.8467 277.689 31.9411 277.498 31.9801C277.308 32.019 277.11 32.0007 276.93 31.9274C276.75 31.8542 276.596 31.7294 276.488 31.5688C276.379 31.4082 276.321 31.2192 276.321 31.0256V23.0836L281.823 27.9025Z" fill="white"/>
<path d="M293.364 10.4476C293.107 10.227 292.797 10.0811 292.466 10.0254C292.135 9.96963 291.795 10.0061 291.482 10.131L270.174 18.6334C269.801 18.7781 269.484 19.0436 269.273 19.389C269.063 19.7344 268.97 20.1406 269.009 20.545C269.043 20.9493 269.206 21.3312 269.472 21.6336C269.739 21.9359 270.094 22.1424 270.486 22.2221L275.9 23.3127V30.185C275.899 30.5568 276.008 30.9203 276.211 31.2293C276.415 31.5383 276.704 31.779 277.042 31.9207C277.266 32.0123 277.505 32.06 277.746 32.0614C277.989 32.0623 278.229 32.014 278.453 31.9194C278.677 31.8247 278.88 31.6856 279.051 31.5103L282.052 28.4728L286.588 32.5305C286.923 32.8306 287.353 32.9973 287.8 32.9996C287.996 33.0038 288.192 32.972 288.377 32.9058C288.682 32.8079 288.956 32.6309 289.173 32.3923C289.389 32.1537 289.541 31.8618 289.612 31.5454L293.952 12.2888C294.028 11.9566 294.013 11.6095 293.91 11.2851C293.806 10.9607 293.617 10.6712 293.364 10.4476V10.4476ZM276.604 21.5419L270.855 20.3808L286.969 13.9424L276.604 21.5419ZM277.746 30.185V24.6262L280.655 27.2297L277.746 30.185ZM287.812 31.1232L278.3 22.6208L292.002 12.5703L287.812 31.1232Z" fill="white"/>
<rect x="264.5" y="4.5" width="35" height="35" rx="3.5" stroke="white" stroke-width="3"/>
<path fill-rule="evenodd" clip-rule="evenodd" d="M212.135 12.2869C212.059 12.275 211.983 12.2732 211.906 12.2815C210.393 12.4453 208.089 13.2625 206.728 14.0005C206.638 14.0495 206.557 14.1141 206.49 14.1913C205.925 14.8375 205.412 15.8905 205.011 16.8877C204.597 17.9101 204.255 18.9901 204.062 19.7713C203.425 22.3093 203.077 25.3567 203.031 28.2475C203.029 28.3918 203.064 28.5341 203.131 28.6615C203.671 29.6929 204.836 30.6487 206.002 31.3471C207.181 32.0545 208.558 32.6125 209.667 32.7205C209.8 32.7332 209.934 32.7149 210.059 32.6671C210.183 32.6194 210.295 32.5434 210.385 32.4451C210.663 32.1445 211.134 31.4425 211.491 30.8971C211.653 30.6487 211.806 30.4111 211.924 30.2221C213.116 30.4381 214.61 30.5641 216.5 30.5641C218.386 30.5641 219.88 30.4381 221.072 30.2221C221.191 30.4129 221.342 30.6487 221.504 30.8953C221.86 31.4425 222.332 32.1445 222.611 32.4451C222.701 32.5434 222.813 32.6194 222.938 32.6671C223.062 32.7149 223.196 32.7332 223.329 32.7205C224.438 32.6125 225.813 32.0545 226.992 31.3471C228.159 30.6487 229.323 29.6929 229.865 28.6615C229.932 28.5339 229.966 28.3916 229.964 28.2475C229.919 25.3567 229.57 22.3075 228.936 19.7695C228.682 18.7893 228.364 17.8267 227.984 16.8877C227.583 15.8905 227.07 14.8357 226.506 14.1913C226.438 14.114 226.357 14.0493 226.267 14.0005C224.908 13.2625 222.604 12.4453 221.088 12.2815C221.013 12.2733 220.936 12.2751 220.861 12.2869C220.522 12.3522 220.204 12.4992 219.934 12.7153C219.331 13.2014 218.842 13.8156 218.505 14.5135C217.838 14.4612 217.169 14.4354 216.5 14.4361C215.776 14.4361 215.107 14.4631 214.489 14.5117C214.152 13.8144 213.664 13.2008 213.06 12.7153C212.791 12.4995 212.474 12.3525 212.135 12.2869V12.2869ZM222.832 29.7685C223.086 30.1586 223.346 30.5445 223.612 30.9259C224.325 30.7639 225.234 30.3859 226.105 29.8639C227.082 29.2789 227.858 28.6039 228.232 28.0333C228.173 25.3225 227.838 22.5073 227.26 20.1889C227.025 19.2859 226.732 18.3991 226.382 17.5339C226.022 16.6375 225.635 15.8779 225.298 15.4423C224.128 14.8357 222.283 14.1949 221.081 14.0203C221.045 14.0422 221.01 14.0663 220.977 14.0923C220.827 14.2096 220.691 14.3424 220.57 14.4883C220.499 14.5728 220.431 14.6599 220.366 14.7493C220.915 14.8501 221.405 14.9707 221.839 15.1039C223.07 15.4819 223.957 16.0039 224.391 16.5817C224.529 16.765 224.588 16.9954 224.555 17.2223C224.523 17.4491 224.402 17.6538 224.218 17.7913C224.128 17.8594 224.024 17.9089 223.914 17.9371C223.805 17.9652 223.69 17.9715 223.578 17.9554C223.351 17.923 223.146 17.8018 223.009 17.6185C222.903 17.4781 222.44 17.0965 221.331 16.7545C220.26 16.4269 218.685 16.1641 216.5 16.1641C214.315 16.1641 212.738 16.4269 211.669 16.7563C210.56 17.0983 210.097 17.4763 209.991 17.6185C209.923 17.7093 209.838 17.7857 209.74 17.8436C209.643 17.9014 209.535 17.9394 209.422 17.9554C209.195 17.9878 208.965 17.9288 208.782 17.7913C208.691 17.7232 208.614 17.6379 208.557 17.5403C208.499 17.4427 208.461 17.3346 208.445 17.2223C208.412 16.9954 208.471 16.765 208.609 16.5817C209.043 16.0021 209.93 15.4837 211.161 15.1057C211.593 14.9707 212.083 14.8519 212.63 14.7511C212.565 14.6607 212.497 14.573 212.425 14.4883C212.304 14.3425 212.168 14.2097 212.02 14.0923C211.986 14.0662 211.95 14.0422 211.914 14.0203C210.713 14.1949 208.868 14.8357 207.698 15.4423C207.36 15.8797 206.974 16.6375 206.613 17.5339C206.229 18.4879 205.911 19.4905 205.736 20.1889C205.156 22.5073 204.822 25.3225 204.764 28.0333C205.138 28.6057 205.912 29.2789 206.89 29.8657C207.763 30.3877 208.67 30.7657 209.385 30.9259C209.654 30.5463 209.913 30.1604 210.164 29.7685C208.751 29.2663 207.993 28.5769 207.5 27.8389C207.437 27.7444 207.393 27.6383 207.372 27.5269C207.35 27.4155 207.35 27.3009 207.372 27.1896C207.395 27.0782 207.439 26.9724 207.502 26.8781C207.565 26.7839 207.647 26.703 207.741 26.6401C207.836 26.5772 207.942 26.5336 208.053 26.5117C208.165 26.4898 208.279 26.49 208.391 26.5124C208.502 26.5348 208.608 26.5789 208.702 26.6422C208.796 26.7055 208.877 26.7868 208.94 26.8813C209.408 27.5869 210.639 28.8361 216.5 28.8361C222.363 28.8361 223.592 27.5869 224.06 26.8813C224.187 26.6903 224.385 26.5577 224.609 26.5124C224.834 26.4672 225.068 26.5131 225.259 26.6401C225.45 26.7671 225.582 26.9647 225.628 27.1896C225.673 27.4144 225.627 27.6479 225.5 27.8389C225.007 28.5769 224.247 29.2681 222.832 29.7685ZM210.344 21.6217C210.783 21.1501 211.379 20.8837 212 20.8801C212.621 20.8837 213.217 21.1501 213.656 21.6217C214.093 22.0951 214.34 22.7341 214.34 23.4001C214.34 24.0661 214.093 24.7051 213.656 25.1785C213.217 25.6501 212.621 25.9165 212 25.9201C211.688 25.9168 211.38 25.8493 211.095 25.7217C210.81 25.5941 210.554 25.4092 210.344 25.1785C209.9 24.6928 209.656 24.0578 209.66 23.4001C209.66 22.7341 209.907 22.0951 210.344 21.6217V21.6217ZM221 20.8801C220.379 20.8837 219.783 21.1501 219.344 21.6217C218.907 22.0951 218.66 22.7341 218.66 23.4001C218.66 24.0661 218.907 24.7051 219.344 25.1785C219.783 25.6501 220.379 25.9165 221 25.9201C221.621 25.9165 222.217 25.6501 222.656 25.1785C223.093 24.7051 223.34 24.0661 223.34 23.4001C223.34 22.7341 223.093 22.0951 222.656 21.6217C222.446 21.391 222.19 21.2061 221.905 21.0785C221.62 20.9509 221.312 20.8834 221 20.8801V20.8801Z" fill="white"/>
<rect x="199.5" y="4.5" width="35" height="35" rx="3.5" stroke="white" stroke-width="3"/>
</svg>
