<svg width="40" height="46" viewBox="0 0 40 46" fill="none" xmlns="http://www.w3.org/2000/svg">
<g clip-path="url(#clip0_2_701)">
<path d="M18.5714 25.7143C17.7857 25.7143 17.1429 26.3571 17.1429 27.1429V35.7143C17.1429 36.5 17.7857 37.1429 18.5714 37.1429C19.3571 37.1429 20 36.5032 20 35.7143V27.1429C20 26.3571 19.3571 25.7143 18.5714 25.7143ZM24.2857 25.7143C23.5 25.7143 22.8571 26.3571 22.8571 27.1429V35.7143C22.8571 36.5032 23.4966 37.1429 24.2054 37.1429C24.9141 37.1429 25.7143 36.5 25.7143 35.7143L25.7142 27.1429C25.6339 26.3571 25.0714 25.7143 24.2857 25.7143ZM33.6518 17.9643C32.425 16.4357 30.5446 15.5134 28.5696 15.5134H27.3446C27.0131 15.5134 26.6829 15.5394 26.3563 15.5906C25.2411 14.7411 23.875 14.2857 22.4464 14.2857H21.425V6.42857C21.425 2.88393 18.5402 0 14.9955 0C11.4509 0 8.56875 2.88393 8.56875 6.42857V21.4732C7.57589 20.9911 6.71339 21.0179 6.23482 21.0179C2.275 21.0179 0 24.342 0 27.2545C0 28.5929 0.430446 29.8893 1.24911 30.9768L8.22589 40.2804C10.7768 43.6875 14.8393 45.7143 19.0804 45.7143H28.875C29.4383 45.7143 30.0205 45.6288 30.4946 45.4781C33.0473 44.9918 35.3045 43.7451 37.0277 41.8674C38.9375 39.8482 40 37.1607 40 34.3036V24.4911C40 20.9464 37.1696 18.0625 33.6518 17.9643V17.9643ZM35.7143 34.3036C35.7143 36.0554 35.0697 37.7018 33.8893 38.9518C32.7705 40.1714 31.2973 40.9759 29.4527 41.3232C29.2321 41.3929 29.0446 41.4286 28.875 41.4286H19.0804C16.1732 41.4286 13.3973 40.0402 11.6536 37.7152L4.675 28.4107C4.42143 28.0714 4.2875 27.6607 4.2875 27.25C4.2875 25.7929 5.58214 25.308 6.22679 25.308C6.62446 25.308 7.29911 25.4464 7.775 26.0851L10.2857 29.4333C10.5619 29.7998 10.9879 30.0064 11.4286 30.0064C12.4946 30.0064 12.858 29.0511 12.858 28.577V6.42857C12.858 5.24732 13.8205 4.28571 14.9205 4.28571C16.1009 4.28571 17.0634 5.24732 17.0634 6.42857V18.0982C17.0634 18.7177 17.5501 19.5277 18.4946 19.5277C19.5982 19.5268 19.6518 18.5714 21.2232 18.5714H22.4482C24.3679 18.5714 24.1054 20.2866 25.5464 20.2866C26.2663 20.2866 26.4219 19.7967 27.3455 19.7967H28.5705C30.9777 19.7967 30.1214 22.2458 32.2107 22.2458L33.467 22.2454C34.7062 22.2454 35.7134 23.2526 35.7134 24.4901V34.3036H35.7143ZM30 25.7143C29.2143 25.7143 28.5714 26.3571 28.5714 27.1429V35.7143C28.5714 36.5032 29.2111 37.1429 30 37.1429C30.7889 37.1429 31.4286 36.5032 31.4286 35.7143V27.1429C31.4286 26.3571 30.7857 25.7143 30 25.7143Z" fill="white"/>
</g>
<defs>
<clipPath id="clip0_2_701">
<rect width="40" height="45.7143" fill="white"/>
</clipPath>
</defs>
</svg>
